<svg xmlns="http://www.w3.org/2000/svg" width="29.25" height="30.402" viewBox="0 0 29.25 30.402">
  <g id="Icon_ionic-md-qr-scanner" data-name="Icon ionic-md-qr-scanner" transform="translate(-3.375 -4.5)">
    <path id="Pfad_22" data-name="Pfad 22" d="M6.75,8.733a.839.839,0,0,1,.858-.858h4.767V4.5h-4.7a4.27,4.27,0,0,0-4.3,4.233V13.5H6.75Z" fill="#fff"/>
    <path id="Pfad_23" data-name="Pfad 23" d="M28.378,4.5H23.625V7.875H28.35a.875.875,0,0,1,.9.858V13.5h3.375V8.733A4.227,4.227,0,0,0,28.378,4.5Z" fill="#fff"/>
    <path id="Pfad_24" data-name="Pfad 24" d="M29.25,27.2a.839.839,0,0,1-.858.858H23.625V31.5h4.767a4.27,4.27,0,0,0,4.233-4.3V22.5H29.25Z" transform="translate(0 3.402)" fill="#fff"/>
    <path id="Pfad_25" data-name="Pfad 25" d="M7.608,28.055A.839.839,0,0,1,6.75,27.2V22.5H3.375v4.7a4.33,4.33,0,0,0,4.3,4.3h4.7V28.055Z" transform="translate(0 3.402)" fill="#fff"/>
  </g>
</svg>
