<svg xmlns="http://www.w3.org/2000/svg" width="33.469" height="31.5" viewBox="0 0 33.469 31.5">
  <path id="Icon_awesome-chart-pie" data-name="Icon awesome-chart-pie" d="M32.472,17.719h-14.6L27.6,27.442a.987.987,0,0,0,1.365.042,14.735,14.735,0,0,0,4.5-8.666.986.986,0,0,0-.988-1.1ZM31.5,13.732A14.8,14.8,0,0,0,17.768,0a.99.99,0,0,0-1.034,1V14.766H30.5a.99.99,0,0,0,1-1.034ZM13.781,17.719V3.12a.986.986,0,0,0-1.1-.988A14.755,14.755,0,0,0,.009,17.25,14.948,14.948,0,0,0,14.952,31.5a14.651,14.651,0,0,0,8.322-2.709.978.978,0,0,0,.1-1.481Z" transform="translate(0 0)" fill="#fff"/>
</svg>
